# xmcd
#
# Track frame offsets: 
#        150
#        48878
#        81643
#        146456
#        182691
#        254022
#
# Disc length: 3887 seconds
#
# Revision: 0
# Processed by: cddbd v1.5.2PL0 Copyright (c) Steve Scherf et al.
# Submitted via: ExactAudioCopy v0.95b3
#
DISCID=520f2d06
DTITLE=Mick Taylor - 1989-12-13 Lonestar Roadhouse NY
DYEAR=1989
DGENRE=Blues
TTITLE0=Laundromat Blues
TTITLE1=Leather Jacket
TTITLE2=Red House
TTITLE3=Semolina
TTITLE4=Going South
TTITLE5=You Gotta Move
EXTD=
EXTT0=
EXTT1=
EXTT2=
EXTT3=
EXTT4=
EXTT5=
PLAYORDER=
